# xmcd
#
# Track frame offsets: 
#        150
#        38515
#        61805
#        80757
#        93114
#        113629
#        127714
#        141339
#        158819
#        181694
#        195437
#        220919
#        237024
#        257529
#        270804
#        284334
#        290004
#        305154
#
# Disc length: 4160 seconds
#
# Revision: 0
# Processed by: cddbd v1.4PL0 Copyright (c) Steve Scherf et al.
# Submitted via: ExactAudioCopy v0.90b4
#
DISCID=ee103e12
DTITLE=Heli Deinböck - Christmas Compilation
DYEAR=1900
DGENRE=Blues
TTITLE0=Ärger als Deix
TTITLE1=Ollas wa so afoch ohne mi
TTITLE2=Purkersdorf
TTITLE3=Marine, Marine
TTITLE4=Christmas Blues
TTITLE5=Wer tötete den Osterhasen
TTITLE6=Mama sagt sie bleibt daham
TTITLE7=Miese Männer (Louisiana)
TTITLE8=Lass den Hut auf
TTITLE9=Oberwart
TTITLE10=Relativ negativ
TTITLE11=Second Hand Mann
TTITLE12=Der Killer vom Billa
TTITLE13=I head a breastless mother
TTITLE14=Kleine Geschenke erhalten die Feindschaft
TTITLE15=Du bist schön
TTITLE16=Pam Pam Blues
TTITLE17=Die Meier Hörfunk Spots
EXTD=
EXTT0=
EXTT1=
EXTT2=
EXTT3=
EXTT4=
EXTT5=
EXTT6=
EXTT7=
EXTT8=
EXTT9=
EXTT10=
EXTT11=
EXTT12=
EXTT13=
EXTT14=
EXTT15=
EXTT16=
EXTT17=
PLAYORDER=
